<svg xmlns="http://www.w3.org/2000/svg" version="1.1" viewBox="1.3752756118774414 1.439181923866272 884.0158081054688 881.7509765625" width="957.00" height="942.00">
<g stroke-width="2.00" fill="none" stroke-linecap="butt">
<path stroke="#8a8685" d="&#10;  M 868.51 489.74&#10;  Q 868.23 489.81 868.18 490.14&#10;  Q 868.08 490.84 868.68 490.46&#10;  L 870.46 489.33&#10;  A 0.34 0.34 0.0 0 0 870.10 488.75&#10;  Q 869.63 489.02 869.13 489.43&#10;  Q 868.84 489.67 868.51 489.74" data-c-stroke="8a8685"/>
<path stroke="#8a8685" d="&#10;  M 873.48 494.00&#10;  Q 873.71 493.55 873.66 492.97&#10;  Q 873.64 492.78 873.57 492.96&#10;  Q 873.19 493.98 873.13 495.03&#10;  Q 873.09 495.78 873.34 495.08&#10;  Q 873.42 494.88 873.37 494.57&#10;  Q 873.33 494.27 873.48 494.00" data-c-stroke="8a8685"/>
<path stroke="#1a6579" d="&#10;  M 563.45 470.58&#10;  Q 561.34 469.01 560.05 471.43&#10;  Q 556.69 477.70 552.41 482.21&#10;  C 549.73 485.03 546.64 487.09 543.87 489.77&#10;  C 541.20 492.36 537.16 494.74 533.93 495.63&#10;  C 528.27 497.20 522.60 499.25 517.22 499.94&#10;  Q 507.27 501.22 496.79 498.43&#10;  Q 491.35 496.97 485.80 495.44&#10;  Q 481.03 494.11 478.60 491.84&#10;  C 474.49 487.99 469.78 485.31 466.56 480.55&#10;  C 462.17 474.04 457.67 467.59 455.64 459.87&#10;  Q 453.66 452.34 453.41 443.37&#10;  Q 453.39 442.87 453.05 442.51&#10;  Q 452.30 441.68 451.23 441.29&#10;  C 447.78 440.05 444.46 438.81 441.21 437.00&#10;  Q 430.89 431.27 418.39 428.41&#10;  Q 416.23 427.91 414.27 426.71&#10;  Q 406.32 421.82 398.92 419.61&#10;  C 394.99 418.44 391.72 416.47 387.60 415.73&#10;  C 377.38 413.90 367.73 409.87 357.51 407.81&#10;  C 343.11 404.90 329.64 403.23 314.84 403.20&#10;  Q 299.72 403.17 291.87 403.98&#10;  Q 282.56 404.95 263.56 408.66&#10;  C 258.14 409.72 253.13 411.63 247.92 413.18&#10;  A 2.19 2.19 0.0 0 0 246.38 415.64&#10;  C 247.17 420.42 247.62 425.21 248.70 429.99&#10;  C 250.22 436.69 250.81 443.58 252.07 450.42&#10;  C 254.05 461.25 254.83 471.58 257.07 481.97&#10;  Q 258.07 486.61 258.73 491.63&#10;  Q 261.45 512.47 265.75 537.49&#10;  C 266.76 543.40 267.37 549.35 268.21 555.09&#10;  C 269.96 567.05 271.01 578.87 272.92 590.95&#10;  C 274.63 601.72 276.01 612.65 277.88 623.26&#10;  Q 280.20 636.42 282.39 651.82&#10;  Q 282.67 653.85 284.51 654.74&#10;  Q 292.44 658.62 301.25 662.70&#10;  Q 307.55 665.63 317.82 668.18&#10;  C 323.38 669.57 328.99 671.24 334.40 673.04&#10;  Q 340.72 675.14 346.29 676.19&#10;  Q 360.27 678.84 370.94 679.55&#10;  Q 374.13 679.76 377.14 680.21&#10;  C 379.88 680.62 382.55 680.44 385.30 680.93&#10;  Q 388.62 681.52 391.95 681.50&#10;  C 394.51 681.49 396.73 682.53 399.39 682.49&#10;  Q 401.27 682.46 403.06 682.84&#10;  Q 405.23 683.30 407.38 683.35&#10;  Q 438.16 684.07 468.36 683.52&#10;  Q 475.26 683.39 483.40 682.74&#10;  Q 490.25 682.18 498.24 681.71&#10;  C 505.18 681.30 511.55 680.53 518.22 679.73&#10;  Q 523.99 679.05 529.73 678.01&#10;  C 535.95 676.88 542.36 676.38 548.42 674.63&#10;  Q 555.43 672.61 563.50 669.57&#10;  C 566.51 668.44 569.82 668.43 572.83 667.25&#10;  C 577.83 665.28 582.95 663.98 587.91 661.71&#10;  Q 594.49 658.70 601.16 655.66&#10;  C 605.56 653.66 603.88 651.73 604.99 648.34&#10;  Q 605.67 646.29 605.97 644.25&#10;  C 607.12 636.38 608.16 628.70 609.49 621.00&#10;  Q 612.06 606.18 613.89 590.30&#10;  C 615.13 579.58 617.66 568.91 618.78 558.29&#10;  C 619.55 551.04 619.81 544.16 621.18 536.94&#10;  Q 623.69 523.65 625.47 511.70&#10;  Q 626.90 502.08 628.39 493.34&#10;  C 630.01 483.77 631.70 475.27 632.29 466.25&#10;  Q 632.35 465.31 631.43 465.45&#10;  Q 623.66 466.65 616.82 467.82&#10;  C 613.31 468.42 609.76 468.50 606.21 469.21&#10;  Q 601.91 470.08 598.20 470.40&#10;  Q 581.75 471.85 565.14 471.18&#10;  A 3.05 3.03 -25.2 0 1 563.45 470.58" data-c-stroke="1a6579"/>
<path stroke="#8edcf1" d="&#10;  M 511.36 580.62&#10;  Q 504.46 579.19 497.23 581.16&#10;  Q 489.96 583.15 485.43 586.04&#10;  C 480.76 589.02 477.93 592.53 474.25 595.95&#10;  C 467.74 602.01 466.82 609.05 464.51 617.12&#10;  C 462.02 625.86 465.21 635.55 468.73 643.67&#10;  Q 470.66 648.10 473.25 650.70&#10;  Q 476.97 654.43 480.87 658.47&#10;  Q 485.59 663.36 492.46 666.44&#10;  Q 497.28 668.60 502.74 668.73&#10;  Q 511.54 668.94 518.80 668.12&#10;  C 524.69 667.45 530.30 664.75 534.64 660.09&#10;  Q 539.09 655.33 543.65 650.90&#10;  Q 545.43 649.18 546.58 646.67&#10;  C 548.11 643.36 550.29 640.59 551.05 636.92&#10;  Q 552.84 628.34 552.44 619.44&#10;  Q 552.36 617.69 552.02 616.00&#10;  C 551.41 612.96 551.16 610.09 550.04 607.19&#10;  Q 547.56 600.74 543.18 596.46&#10;  C 542.20 595.49 541.43 595.32 540.65 593.97&#10;  Q 538.84 590.83 535.47 589.85" data-c-stroke="8edcf1"/>
</g>
<path fill="#160f0d" d="&#10;  M 443.13 883.08&#10;  Q 434.46 882.88 424.82 882.58&#10;  C 420.62 882.45 416.75 881.63 412.61 881.43&#10;  Q 410.24 881.32 407.83 881.02&#10;  Q 405.40 880.71 402.90 880.56&#10;  Q 392.49 879.96 381.98 878.91&#10;  Q 376.30 878.34 370.57 877.14&#10;  Q 366.91 876.38 362.88 875.96&#10;  Q 358.96 875.55 355.23 874.52&#10;  C 348.35 872.61 341.37 871.75 334.37 869.53&#10;  Q 329.64 868.02 324.44 866.73&#10;  C 321.37 865.97 318.60 864.46 315.54 863.84&#10;  Q 307.38 862.20 298.62 859.57&#10;  C 292.02 857.59 285.96 854.29 279.59 851.97&#10;  C 272.68 849.46 266.61 845.45 259.51 843.34&#10;  Q 252.27 841.19 246.57 837.77&#10;  C 243.04 835.65 239.34 834.32 235.94 831.87&#10;  Q 231.82 828.91 226.71 827.32&#10;  Q 222.78 826.11 219.69 823.26&#10;  C 214.88 818.84 208.40 816.76 203.22 812.76&#10;  C 198.99 809.50 194.30 806.85 189.93 803.70&#10;  Q 185.01 800.15 180.08 796.77&#10;  Q 175.25 793.45 170.74 789.58&#10;  Q 163.39 783.26 155.97 778.05&#10;  Q 153.31 776.18 150.89 772.89&#10;  C 148.75 770.00 146.42 768.47 143.45 766.78&#10;  C 142.13 766.02 140.96 765.02 140.09 763.73&#10;  Q 137.70 760.19 135.05 757.95&#10;  Q 132.88 756.11 131.00 753.88&#10;  C 129.23 751.79 126.96 750.38 125.11 748.24&#10;  Q 118.89 741.02 112.82 735.43&#10;  C 110.60 733.40 109.19 732.27 107.76 729.52&#10;  Q 104.35 722.94 98.97 718.61&#10;  C 94.88 715.31 92.29 710.71 89.69 706.43&#10;  C 86.83 701.72 82.27 698.20 79.81 693.31&#10;  C 78.76 691.22 77.76 689.26 76.42 687.33&#10;  Q 71.08 679.68 65.38 672.01&#10;  Q 63.68 669.73 62.44 667.29&#10;  C 61.15 664.78 60.05 662.13 58.57 659.70&#10;  Q 55.86 655.27 53.69 650.54&#10;  C 52.18 647.24 49.98 644.50 48.36 641.33&#10;  Q 43.89 632.58 40.49 623.73&#10;  Q 38.62 618.85 36.33 613.89&#10;  C 34.27 609.44 32.09 604.74 30.40 600.06&#10;  C 27.58 592.26 24.18 584.95 21.71 576.93&#10;  Q 20.18 571.95 18.43 566.52&#10;  C 16.83 561.57 16.03 556.38 14.95 551.20&#10;  Q 13.90 546.17 12.37 541.66&#10;  C 10.93 537.42 10.63 533.09 9.57 528.77&#10;  Q 7.93 522.05 7.47 517.00&#10;  Q 6.72 508.66 5.58 501.05&#10;  Q 4.76 495.61 4.16 490.40&#10;  C 3.62 485.70 2.89 480.92 2.71 476.18&#10;  Q 2.28 464.91 1.77 454.01&#10;  Q 1.71 452.81 1.64 451.49&#10;  Q 0.82 435.30 2.54 419.22&#10;  Q 3.13 413.74 3.28 408.92&#10;  Q 3.44 403.74 3.68 398.55&#10;  Q 3.77 396.53 4.22 394.51&#10;  C 4.68 392.41 4.17 390.25 4.83 388.22&#10;  Q 5.18 387.16 5.28 386.09&#10;  Q 6.07 377.73 7.33 368.22&#10;  Q 7.50 366.97 7.72 365.76&#10;  Q 9.04 358.38 10.98 349.95&#10;  C 12.27 344.31 13.98 338.92 15.00 333.25&#10;  Q 15.84 328.55 17.36 323.53&#10;  C 18.66 319.22 19.47 315.00 21.03 310.61&#10;  C 24.16 301.86 27.19 292.81 30.79 284.54&#10;  C 33.45 278.44 36.65 272.35 38.61 266.08&#10;  C 39.45 263.39 40.21 260.64 41.54 258.19&#10;  C 44.74 252.30 47.21 246.22 50.52 240.48&#10;  Q 52.70 236.70 54.63 232.70&#10;  Q 56.50 228.83 58.88 225.02&#10;  Q 62.72 218.90 65.71 213.23&#10;  Q 67.53 209.77 69.94 206.96&#10;  Q 73.70 202.57 76.15 197.04&#10;  Q 77.43 194.16 79.92 191.32&#10;  Q 86.16 184.21 90.26 178.15&#10;  Q 95.58 170.27 101.05 164.13&#10;  C 105.96 158.60 109.38 153.50 113.98 148.57&#10;  Q 117.89 144.39 120.17 141.58&#10;  C 122.97 138.11 126.70 135.74 129.52 132.26&#10;  Q 133.22 127.70 139.03 123.36&#10;  C 142.23 120.96 144.56 116.22 148.02 113.52&#10;  C 149.76 112.16 151.34 110.57 153.17 109.38&#10;  C 159.59 105.20 164.79 99.60 170.87 95.17&#10;  Q 179.62 88.80 188.74 81.93&#10;  C 193.87 78.07 199.61 75.09 204.82 70.84&#10;  C 209.56 66.97 216.54 64.32 222.28 60.79&#10;  Q 225.72 58.68 229.39 56.76&#10;  C 233.14 54.80 236.71 51.57 240.34 50.11&#10;  Q 248.21 46.94 256.48 43.25&#10;  C 260.36 41.52 264.66 38.42 268.98 36.66&#10;  C 273.10 34.98 276.92 33.03 281.26 31.71&#10;  C 284.32 30.78 287.22 29.19 290.30 28.14&#10;  Q 298.88 25.22 308.15 22.25&#10;  C 314.01 20.37 319.98 19.42 326.00 17.61&#10;  C 332.90 15.53 340.35 13.53 347.42 12.16&#10;  C 353.03 11.07 358.35 9.08 364.09 8.37&#10;  C 371.85 7.40 379.26 5.75 386.85 4.99&#10;  Q 397.25 3.94 409.25 3.24&#10;  C 414.32 2.94 419.49 2.06 424.50 2.15&#10;  C 426.73 2.20 428.87 1.71 431.12 1.64&#10;  Q 445.72 1.17 460.47 1.80&#10;  C 462.55 1.89 464.49 2.50 466.52 2.47&#10;  C 470.88 2.39 475.07 3.44 479.22 3.52&#10;  Q 490.03 3.71 499.02 4.87&#10;  Q 501.54 5.20 504.19 5.48&#10;  Q 506.81 5.77 509.31 6.30&#10;  Q 514.75 7.44 520.10 8.16&#10;  C 525.52 8.89 530.60 10.65 535.74 11.49&#10;  C 542.03 12.52 547.84 14.30 553.97 15.76&#10;  C 559.38 17.06 564.59 19.33 569.97 20.26&#10;  Q 574.26 21.01 578.47 22.37&#10;  C 584.03 24.17 589.85 25.88 595.24 27.93&#10;  Q 611.24 33.99 618.66 37.25&#10;  C 626.04 40.48 632.61 44.70 640.01 47.57&#10;  Q 648.00 50.67 655.21 55.39&#10;  Q 658.79 57.73 662.65 59.53&#10;  C 668.76 62.38 674.17 65.95 679.82 69.40&#10;  Q 683.96 71.93 687.85 75.28&#10;  C 690.19 77.31 692.42 78.65 695.04 79.98&#10;  Q 696.70 80.83 698.06 82.01&#10;  C 703.07 86.35 709.02 89.33 714.35 93.76&#10;  C 719.10 97.69 723.88 101.39 728.61 105.48&#10;  Q 732.57 108.90 736.69 112.21&#10;  Q 741.62 116.16 746.00 121.17&#10;  C 749.25 124.90 753.27 127.34 756.30 131.15&#10;  C 759.95 135.73 764.39 139.18 767.84 143.71&#10;  C 769.13 145.40 770.87 146.69 772.28 148.26&#10;  C 777.06 153.54 781.51 158.86 785.86 164.57&#10;  Q 789.30 169.08 792.89 173.48&#10;  C 794.47 175.40 796.46 176.70 797.68 178.94&#10;  Q 800.11 183.38 802.78 187.52&#10;  C 804.87 190.75 808.32 193.34 809.97 196.41&#10;  Q 814.99 205.72 818.68 210.42&#10;  Q 821.67 214.22 823.71 217.80&#10;  Q 825.71 221.30 827.94 224.82&#10;  C 830.38 228.64 831.70 233.28 833.74 236.85&#10;  Q 839.23 246.44 845.03 257.24&#10;  C 846.83 260.61 847.42 264.84 849.04 268.54&#10;  C 851.75 274.72 853.96 280.87 856.83 287.05&#10;  C 858.67 290.99 859.75 295.31 861.41 299.35&#10;  Q 865.28 308.81 867.42 316.88&#10;  Q 868.38 320.52 869.35 323.77&#10;  C 870.36 327.16 871.10 330.60 871.69 334.09&#10;  Q 872.05 336.21 872.68 338.26&#10;  C 874.79 345.18 875.56 351.83 877.00 358.59&#10;  Q 878.97 367.81 879.71 375.98&#10;  Q 880.09 380.06 881.12 384.42&#10;  Q 882.25 389.19 882.41 393.11&#10;  Q 882.52 395.79 882.92 398.69&#10;  Q 883.48 402.75 883.53 404.35&#10;  Q 883.70 410.04 883.79 415.53&#10;  C 883.81 417.17 884.56 418.56 883.98 420.17&#10;  Q 883.78 420.71 883.87 421.28&#10;  C 884.10 422.68 884.60 423.89 884.55 425.34&#10;  C 884.41 428.70 885.41 431.62 885.35 434.93&#10;  Q 885.22 441.82 885.39 449.53&#10;  C 885.42 450.66 884.81 452.16 884.77 453.50&#10;  Q 884.55 460.74 884.45 468.05&#10;  Q 884.42 469.73 884.04 471.21&#10;  C 883.40 473.68 884.04 476.00 883.63 478.44&#10;  C 883.31 480.29 883.58 482.08 883.12 483.86&#10;  C 882.22 487.32 883.06 490.99 881.91 494.18&#10;  C 881.30 495.90 881.76 497.57 881.26 499.32&#10;  Q 879.77 504.51 879.82 507.54&#10;  C 879.87 510.74 878.92 513.26 878.66 516.27&#10;  Q 878.11 522.90 877.35 525.68&#10;  Q 875.79 531.34 875.30 536.40&#10;  Q 874.88 540.71 873.17 546.06&#10;  Q 871.78 550.43 870.63 555.58&#10;  C 868.13 566.83 864.05 578.43 859.97 589.68&#10;  Q 858.52 593.70 856.68 597.68&#10;  Q 854.91 601.49 853.51 605.83&#10;  Q 853.26 606.59 852.87 607.42&#10;  Q 849.35 614.96 846.61 622.85&#10;  Q 845.78 625.23 844.61 627.68&#10;  C 843.15 630.73 842.26 633.92 840.43 636.82&#10;  Q 833.42 647.95 827.80 660.47&#10;  Q 825.86 664.80 823.40 668.09&#10;  C 820.29 672.23 817.46 676.40 814.83 680.84&#10;  C 809.94 689.07 803.97 696.59 797.99 704.46&#10;  C 795.56 707.67 794.18 711.78 791.21 714.41&#10;  Q 785.62 719.35 782.51 724.63&#10;  Q 780.74 727.62 778.26 730.15&#10;  Q 772.26 736.25 766.06 743.09&#10;  C 759.76 750.05 752.99 756.63 746.34 763.32&#10;  Q 741.94 767.74 736.21 772.48&#10;  Q 731.26 776.56 726.01 781.52&#10;  C 724.10 783.32 721.66 784.31 719.62 786.10&#10;  Q 713.55 791.45 707.59 796.30&#10;  Q 704.45 798.87 699.69 800.98&#10;  C 696.67 802.32 694.18 805.59 691.27 807.67&#10;  C 686.71 810.94 682.25 814.34 677.25 816.83&#10;  Q 670.92 819.98 665.04 824.25&#10;  Q 661.77 826.63 658.06 828.10&#10;  Q 653.67 829.85 648.82 832.95&#10;  C 641.69 837.52 633.54 840.94 625.69 843.86&#10;  Q 621.54 845.40 618.03 847.16&#10;  C 613.48 849.45 608.55 850.82 604.07 853.05&#10;  Q 601.08 854.53 597.82 855.77&#10;  Q 586.71 859.97 579.44 861.87&#10;  Q 572.18 863.76 566.22 865.60&#10;  Q 561.51 867.06 556.88 868.34&#10;  C 552.82 869.46 548.84 870.75 544.71 871.48&#10;  C 539.40 872.42 534.35 874.11 529.20 874.97&#10;  Q 520.10 876.50 510.53 878.02&#10;  Q 504.26 879.02 497.88 879.62&#10;  Q 490.91 880.26 483.98 880.99&#10;  Q 480.75 881.33 477.68 881.39&#10;  C 474.73 881.44 471.80 881.39 468.86 881.85&#10;  Q 462.54 882.86 455.77 882.80&#10;  C 453.82 882.78 452.14 883.20 450.28 883.19&#10;  Q 446.60 883.16 443.13 883.08&#10;  Z&#10;  M 867.25 465.06&#10;  Q 867.64 455.67 867.64 445.73&#10;  C 867.64 443.36 868.28 441.10 867.99 438.76&#10;  Q 867.67 436.27 867.67 433.71&#10;  Q 867.61 419.56 866.82 406.48&#10;  Q 866.22 396.58 864.76 387.06&#10;  Q 862.83 374.52 860.79 365.68&#10;  Q 859.67 360.80 859.28 356.22&#10;  Q 859.16 354.86 858.90 353.62&#10;  C 858.41 351.28 858.10 348.96 857.31 346.75&#10;  Q 855.62 342.00 854.52 337.03&#10;  C 853.40 331.97 851.09 327.22 850.23 322.16&#10;  Q 849.87 320.05 848.91 318.02&#10;  C 848.41 316.94 848.64 315.65 848.26 314.48&#10;  C 846.99 310.61 846.41 306.61 844.86 302.83&#10;  Q 842.17 296.29 839.76 289.67&#10;  C 838.55 286.34 836.74 283.27 835.66 279.96&#10;  C 833.69 273.93 830.22 268.49 828.17 262.55&#10;  C 825.82 255.73 821.93 249.71 818.49 243.47&#10;  C 816.25 239.39 813.15 236.21 811.72 231.79&#10;  C 809.94 226.31 806.34 222.94 803.61 218.64&#10;  Q 799.93 212.85 795.46 205.44&#10;  Q 792.27 200.16 788.34 195.59&#10;  Q 784.92 191.61 781.73 186.72&#10;  Q 777.82 180.76 773.02 175.65&#10;  Q 769.70 172.12 766.79 167.92&#10;  Q 762.88 162.29 760.52 160.16&#10;  Q 756.49 156.53 753.50 152.91&#10;  C 751.20 150.14 748.39 147.94 746.08 145.10&#10;  Q 742.27 140.42 739.06 137.84&#10;  Q 734.69 134.34 731.63 130.74&#10;  Q 729.57 128.32 727.06 126.51&#10;  Q 719.39 120.97 713.15 114.56&#10;  C 710.64 111.99 707.87 110.27 704.82 108.47&#10;  Q 701.84 106.72 698.45 104.07&#10;  Q 692.99 99.80 687.20 95.12&#10;  Q 682.64 91.44 678.26 89.13&#10;  Q 673.75 86.76 668.95 83.53&#10;  C 665.47 81.19 661.72 79.37 658.40 76.93&#10;  C 654.79 74.29 650.42 72.62 646.63 70.15&#10;  C 643.42 68.07 640.25 65.85 636.75 64.36&#10;  C 633.12 62.82 630.03 60.78 626.21 59.63&#10;  Q 622.00 58.36 618.31 56.06&#10;  Q 613.61 53.14 607.88 51.20&#10;  C 604.92 50.20 602.31 48.58 599.30 47.79&#10;  Q 596.04 46.93 592.95 45.76&#10;  C 589.58 44.48 586.07 43.48 582.69 42.02&#10;  Q 579.15 40.48 575.52 39.48&#10;  C 571.52 38.38 567.71 36.66 563.78 35.55&#10;  C 559.19 34.25 555.18 32.26 550.34 31.70&#10;  Q 547.03 31.31 543.81 30.52&#10;  Q 536.56 28.72 529.26 26.99&#10;  Q 522.07 25.29 515.40 24.58&#10;  Q 508.22 23.81 501.38 22.67&#10;  C 499.66 22.38 497.99 22.64 496.28 22.29&#10;  Q 490.51 21.13 484.75 20.88&#10;  Q 474.00 20.39 463.26 19.91&#10;  C 453.16 19.45 443.25 19.55 433.22 19.59&#10;  Q 427.15 19.61 420.33 20.10&#10;  C 413.28 20.61 406.03 20.25 398.67 21.24&#10;  Q 394.19 21.85 389.99 22.37&#10;  C 380.84 23.52 371.60 23.86 362.43 25.94&#10;  Q 349.92 28.79 337.97 31.24&#10;  C 332.98 32.27 328.38 34.40 323.38 35.49&#10;  Q 316.07 37.08 309.70 39.80&#10;  Q 300.31 43.82 291.28 46.64&#10;  Q 282.92 49.25 276.88 52.02&#10;  Q 269.65 55.33 261.81 59.12&#10;  C 257.17 61.35 252.22 63.07 247.62 65.69&#10;  C 242.58 68.55 238.27 70.49 233.46 74.02&#10;  C 229.29 77.08 224.24 78.76 219.68 81.88&#10;  C 211.09 87.75 202.38 92.70 193.60 99.49&#10;  C 191.58 101.06 190.23 103.09 188.11 104.47&#10;  Q 184.56 106.79 180.25 109.07&#10;  C 176.56 111.02 174.95 114.33 171.74 116.88&#10;  Q 167.12 120.55 162.83 123.59&#10;  Q 160.23 125.43 158.24 127.85&#10;  Q 153.36 133.80 146.57 138.08&#10;  A 5.10 5.04 89.7 0 0 144.94 139.75&#10;  C 142.87 143.19 140.51 145.95 137.41 148.75&#10;  C 128.25 156.99 120.32 167.39 112.23 176.97&#10;  Q 109.44 180.27 107.54 183.50&#10;  Q 105.03 187.76 102.90 190.09&#10;  Q 96.17 197.42 91.63 204.46&#10;  Q 87.13 211.44 82.74 218.61&#10;  Q 81.54 220.56 79.82 222.45&#10;  C 75.40 227.27 74.66 233.74 70.79 238.98&#10;  Q 67.11 243.97 64.25 250.55&#10;  C 62.54 254.48 59.83 257.74 58.30 261.82&#10;  Q 56.92 265.51 55.50 268.97&#10;  C 54.22 272.09 52.38 274.87 51.25 278.00&#10;  C 48.96 284.30 45.77 290.40 43.92 296.62&#10;  C 42.04 302.97 39.17 308.92 37.99 315.53&#10;  C 37.31 319.41 35.72 322.98 34.77 326.80&#10;  Q 33.83 330.56 32.76 334.27&#10;  C 30.69 341.47 28.53 349.25 27.07 356.79&#10;  Q 26.17 361.47 25.07 365.94&#10;  Q 23.97 370.43 23.37 376.08&#10;  Q 22.83 381.10 21.81 386.37&#10;  C 21.26 389.17 21.88 391.71 21.01 394.48&#10;  Q 20.41 396.41 20.48 398.47&#10;  C 20.51 399.48 19.85 400.48 19.84 401.46&#10;  Q 19.82 407.18 19.14 413.26&#10;  Q 19.02 414.32 18.97 415.40&#10;  Q 17.40 446.25 19.87 480.07&#10;  Q 20.32 486.23 22.03 495.93&#10;  C 22.59 499.12 22.33 502.17 23.18 505.27&#10;  C 23.79 507.46 23.44 509.68 23.91 511.97&#10;  C 24.78 516.18 25.51 520.47 26.57 524.62&#10;  Q 27.17 526.97 27.61 529.43&#10;  Q 29.82 541.76 33.95 554.57&#10;  Q 35.08 558.06 35.99 561.93&#10;  Q 36.74 565.09 37.94 569.07&#10;  Q 43.82 588.47 48.13 599.20&#10;  C 51.24 606.93 54.72 614.82 58.46 622.30&#10;  C 62.26 629.91 65.26 637.35 69.77 644.51&#10;  C 73.82 650.94 77.77 657.25 80.96 664.11&#10;  Q 83.06 668.65 86.31 672.25&#10;  Q 88.51 674.69 90.30 677.98&#10;  Q 94.99 686.58 102.41 694.94&#10;  C 105.34 698.24 107.32 702.16 110.17 705.55&#10;  Q 117.43 714.18 124.45 722.45&#10;  C 126.58 724.96 129.05 727.16 130.99 729.63&#10;  Q 133.20 732.44 135.72 734.62&#10;  C 138.99 737.45 141.18 741.01 144.71 743.68&#10;  Q 147.61 745.86 149.94 748.60&#10;  C 153.15 752.35 157.33 754.91 160.59 758.86&#10;  C 162.42 761.07 164.77 762.72 166.94 764.56&#10;  Q 169.58 766.81 172.17 768.28&#10;  C 175.88 770.38 178.28 773.69 181.65 776.31&#10;  Q 188.58 781.69 195.79 786.55&#10;  Q 198.86 788.63 201.24 790.84&#10;  Q 204.78 794.12 206.74 795.02&#10;  Q 212.86 797.82 217.44 801.33&#10;  C 219.61 802.98 221.65 804.66 224.08 805.95&#10;  Q 228.95 808.54 233.75 811.47&#10;  Q 238.48 814.37 243.33 816.85&#10;  Q 259.06 824.90 273.07 830.90&#10;  Q 282.86 835.08 293.25 839.31&#10;  Q 300.29 842.17 308.84 844.19&#10;  C 314.88 845.62 320.54 847.57 326.32 849.42&#10;  Q 333.25 851.64 339.39 853.14&#10;  Q 347.69 855.19 356.46 857.19&#10;  Q 365.19 859.19 373.20 860.16&#10;  Q 382.84 861.32 392.40 863.01&#10;  Q 395.57 863.56 398.60 863.59&#10;  Q 401.77 863.61 404.85 863.86&#10;  Q 409.48 864.24 414.18 864.47&#10;  C 419.58 864.74 424.79 865.17 430.07 865.29&#10;  Q 455.50 865.89 481.73 863.91&#10;  Q 490.22 863.27 499.54 862.04&#10;  Q 507.92 860.94 517.33 859.71&#10;  Q 522.43 859.05 526.68 857.95&#10;  C 532.56 856.43 538.86 855.92 544.63 853.77&#10;  Q 548.41 852.36 552.71 851.53&#10;  C 557.32 850.63 561.43 848.72 566.07 847.83&#10;  C 570.75 846.93 574.89 844.74 579.61 843.66&#10;  C 582.64 842.97 585.24 841.43 588.20 840.73&#10;  Q 597.36 838.58 604.78 834.57&#10;  C 608.48 832.56 612.61 831.79 616.31 829.83&#10;  C 622.50 826.57 629.54 824.91 634.99 820.71&#10;  C 637.56 818.72 640.20 817.60 643.17 816.47&#10;  Q 646.10 815.35 649.41 813.42&#10;  Q 657.64 808.60 665.64 803.40&#10;  C 671.33 799.70 677.58 797.07 682.85 792.75&#10;  Q 689.77 787.06 692.97 785.03&#10;  Q 701.63 779.54 707.36 774.20&#10;  Q 709.71 772.01 711.99 770.58&#10;  C 715.96 768.08 719.66 765.65 723.00 762.25&#10;  Q 727.92 757.25 732.90 752.43&#10;  C 734.80 750.59 737.03 749.26 738.68 747.24&#10;  Q 740.57 744.92 742.83 742.76&#10;  Q 755.30 730.83 764.52 719.62&#10;  Q 768.73 714.52 770.74 712.44&#10;  C 773.73 709.34 775.48 705.43 778.73 702.53&#10;  C 781.93 699.68 784.20 695.12 786.39 691.43&#10;  C 788.13 688.48 790.76 686.27 792.97 683.69&#10;  C 794.56 681.84 795.58 679.66 796.77 677.54&#10;  Q 797.98 675.38 799.70 672.92&#10;  Q 809.85 658.33 815.89 645.71&#10;  Q 817.11 643.16 819.75 639.40&#10;  Q 821.69 636.66 823.49 632.78&#10;  Q 828.51 622.01 832.54 612.52&#10;  Q 835.03 606.65 837.71 600.74&#10;  Q 839.76 596.20 841.69 591.24&#10;  Q 844.84 583.13 848.55 569.11&#10;  Q 849.10 567.02 849.61 564.97&#10;  Q 851.35 558.07 853.24 552.04&#10;  C 854.33 548.54 855.08 545.14 856.05 541.78&#10;  Q 857.11 538.12 857.92 534.00&#10;  Q 859.11 527.88 860.33 521.10&#10;  C 861.05 517.12 862.63 513.53 862.55 509.45&#10;  C 862.52 507.84 863.29 506.39 863.42 504.77&#10;  Q 863.85 499.53 864.41 494.10&#10;  Q 864.68 491.53 865.42 488.92&#10;  Q 866.25 486.01 866.24 483.28&#10;  Q 866.22 478.47 866.66 473.46&#10;  C 866.80 471.84 866.44 470.20 866.78 468.62&#10;  Q 867.18 466.80 867.25 465.06&#10;  Z&#10;  M 868.51 489.74&#10;  Q 868.23 489.81 868.18 490.14&#10;  Q 868.08 490.84 868.68 490.46&#10;  L 870.46 489.33&#10;  A 0.34 0.34 0.0 0 0 870.10 488.75&#10;  Q 869.63 489.02 869.13 489.43&#10;  Q 868.84 489.67 868.51 489.74&#10;  Z&#10;  M 873.48 494.00&#10;  Q 873.71 493.55 873.66 492.97&#10;  Q 873.64 492.78 873.57 492.96&#10;  Q 873.19 493.98 873.13 495.03&#10;  Q 873.09 495.78 873.34 495.08&#10;  Q 873.42 494.88 873.37 494.57&#10;  Q 873.33 494.27 873.48 494.00&#10;  Z" data-c-fill="160f0d"/>
<path fill="#160f0d" d="&#10;  M 661.03 382.04&#10;  Q 660.82 382.77 660.69 383.59&#10;  Q 660.44 385.19 660.38 385.41&#10;  C 659.41 388.81 660.04 391.99 659.47 395.08&#10;  Q 658.26 401.66 657.83 409.44&#10;  Q 657.63 412.96 656.68 416.63&#10;  Q 655.61 420.79 655.38 425.41&#10;  Q 655.18 429.62 653.78 434.37&#10;  C 653.26 436.15 654.10 437.87 653.51 439.44&#10;  Q 651.88 443.86 651.81 447.04&#10;  Q 651.75 449.84 651.02 452.71&#10;  C 650.32 455.46 650.77 458.03 649.61 460.66&#10;  Q 649.37 461.20 649.57 461.75&#10;  C 650.16 463.35 649.01 464.29 648.74 465.76&#10;  Q 647.95 470.06 647.62 474.08&#10;  C 646.87 483.40 645.55 492.61 644.28 502.10&#10;  Q 642.86 512.68 641.16 521.83&#10;  Q 639.25 532.14 637.84 544.01&#10;  Q 637.58 546.18 637.14 548.24&#10;  C 636.69 550.34 636.68 552.26 636.19 554.29&#10;  C 635.48 557.22 635.95 560.10 635.42 563.06&#10;  C 634.52 568.05 634.29 573.04 633.60 578.15&#10;  Q 632.07 589.52 630.18 600.76&#10;  Q 629.56 604.44 628.79 608.25&#10;  Q 628.00 612.18 627.49 615.97&#10;  Q 625.37 631.82 621.83 652.47&#10;  C 621.51 654.32 621.58 656.05 621.06 657.93&#10;  Q 619.87 662.21 619.65 666.27&#10;  Q 619.45 670.24 618.84 674.30&#10;  Q 617.72 681.86 617.45 689.85&#10;  C 617.40 691.33 616.53 692.20 616.54 693.69&#10;  C 616.55 696.01 615.72 698.09 615.70 700.46&#10;  C 615.64 707.59 615.06 713.18 609.78 718.14&#10;  C 605.63 722.04 601.50 726.84 596.66 729.78&#10;  Q 591.29 733.04 585.93 736.68&#10;  C 581.79 739.48 576.78 740.01 572.24 741.96&#10;  Q 557.13 748.46 546.07 751.08&#10;  Q 541.72 752.11 537.40 753.48&#10;  Q 532.81 754.94 527.88 755.90&#10;  C 518.75 757.67 509.64 759.80 500.51 760.62&#10;  Q 496.00 761.02 491.90 761.77&#10;  C 487.55 762.56 483.32 762.79 478.99 762.89&#10;  C 477.25 762.93 475.75 763.47 474.00 763.47&#10;  Q 468.40 763.50 462.82 763.87&#10;  Q 454.99 764.40 451.66 764.44&#10;  Q 440.25 764.58 427.50 764.21&#10;  C 424.57 764.13 421.95 763.67 419.16 763.69&#10;  Q 412.56 763.75 406.58 762.99&#10;  C 403.49 762.60 400.45 762.62 397.43 761.98&#10;  C 390.73 760.54 384.17 760.53 377.55 759.46&#10;  Q 372.05 758.58 367.49 757.59&#10;  Q 351.77 754.16 334.08 749.18&#10;  Q 330.14 748.08 326.94 746.65&#10;  Q 323.26 745.00 319.68 743.96&#10;  Q 315.31 742.70 310.96 740.87&#10;  C 303.49 737.73 295.93 735.25 290.01 729.39&#10;  Q 287.10 726.53 283.29 723.84&#10;  Q 277.27 719.61 273.41 712.66&#10;  C 272.57 711.13 271.41 707.40 271.52 705.66&#10;  C 271.68 702.87 270.61 700.56 270.82 697.75&#10;  C 270.96 695.79 270.49 694.05 270.42 692.11&#10;  C 270.31 688.66 270.70 684.40 269.84 681.11&#10;  C 269.44 679.58 269.59 678.16 269.30 676.63&#10;  C 268.59 672.84 267.68 669.32 267.35 665.41&#10;  Q 266.98 661.16 266.26 656.78&#10;  Q 262.06 631.39 259.68 615.60&#10;  C 258.73 609.25 258.30 602.84 257.14 596.36&#10;  C 255.32 586.21 254.33 576.21 252.39 566.14&#10;  C 251.19 559.86 250.51 553.73 249.44 547.59&#10;  Q 245.04 522.49 242.16 497.11&#10;  C 240.88 485.91 239.02 474.66 237.52 463.75&#10;  Q 235.24 447.14 232.05 431.81&#10;  Q 231.63 429.80 231.41 427.71&#10;  C 231.22 425.87 230.58 424.17 230.50 422.33&#10;  Q 230.31 418.27 229.13 414.10&#10;  Q 228.55 412.07 228.48 409.96&#10;  C 228.41 408.02 227.79 406.30 227.65 404.31&#10;  Q 226.98 394.30 225.21 385.09&#10;  Q 223.91 378.29 223.33 373.84&#10;  Q 222.59 368.18 221.72 362.53&#10;  Q 221.49 361.01 221.42 359.47&#10;  C 221.33 357.77 220.52 356.29 220.52 354.50&#10;  C 220.54 351.20 219.58 348.09 219.29 344.86&#10;  Q 218.52 336.12 216.88 327.58&#10;  Q 216.01 322.99 215.50 318.42&#10;  Q 214.98 313.74 214.46 309.30&#10;  Q 214.22 307.20 213.48 305.32&#10;  Q 212.82 303.64 212.47 301.26&#10;  Q 211.70 295.95 210.98 290.51&#10;  Q 210.26 285.06 209.19 279.81&#10;  Q 207.18 270.05 206.43 260.42&#10;  Q 206.27 258.32 205.58 255.89&#10;  Q 205.00 253.86 204.63 251.64&#10;  Q 203.01 241.74 202.27 231.61&#10;  Q 202.14 229.95 201.74 228.35&#10;  C 201.39 226.95 201.54 225.68 201.22 224.23&#10;  Q 200.01 218.89 199.55 213.45&#10;  C 199.14 208.48 198.30 203.60 198.44 198.61&#10;  C 198.50 196.45 197.46 194.64 197.50 192.53&#10;  Q 197.57 189.43 197.22 186.60&#10;  C 196.19 178.22 200.53 170.77 204.28 163.74&#10;  Q 205.12 162.16 206.62 161.21&#10;  Q 214.68 156.10 220.41 150.32&#10;  Q 222.07 148.64 224.01 147.57&#10;  Q 230.48 143.97 237.33 140.17&#10;  C 244.40 136.26 252.18 134.15 259.55 130.92&#10;  Q 263.30 129.27 267.28 128.08&#10;  C 270.88 127.00 274.22 125.54 277.82 124.61&#10;  C 282.92 123.29 287.82 121.32 292.98 120.19&#10;  Q 295.89 119.55 298.97 118.76&#10;  Q 307.99 116.45 315.63 114.68&#10;  Q 323.24 112.91 332.34 111.73&#10;  Q 342.42 110.42 352.46 108.53&#10;  C 359.43 107.21 366.67 107.79 373.77 106.74&#10;  C 380.89 105.69 388.04 104.65 395.19 104.44&#10;  Q 398.54 104.34 402.13 104.11&#10;  Q 405.76 103.89 409.12 103.81&#10;  Q 440.48 103.16 474.31 103.76&#10;  C 476.16 103.79 477.88 104.22 479.67 104.26&#10;  Q 492.76 104.55 502.61 105.16&#10;  Q 508.21 105.51 513.81 106.52&#10;  Q 519.19 107.48 524.29 107.66&#10;  Q 535.02 108.02 545.27 110.01&#10;  Q 549.97 110.92 558.25 111.96&#10;  Q 564.45 112.73 571.10 114.54&#10;  C 574.68 115.50 578.27 115.94 581.85 116.61&#10;  Q 583.74 116.96 589.47 118.92&#10;  Q 593.08 120.15 597.09 120.83&#10;  C 600.66 121.44 604.02 123.23 607.56 124.18&#10;  Q 629.48 130.09 648.94 139.73&#10;  C 654.78 142.63 659.98 146.44 665.67 149.57&#10;  C 669.56 151.71 672.13 155.07 675.60 157.80&#10;  C 680.19 161.41 683.71 164.42 686.00 170.08&#10;  Q 688.34 175.90 689.36 181.08&#10;  Q 690.38 186.33 689.38 191.15&#10;  Q 688.64 194.69 688.21 198.32&#10;  Q 687.01 208.38 686.26 217.96&#10;  Q 686.09 220.05 685.69 221.90&#10;  C 685.31 223.66 685.84 225.27 685.21 227.03&#10;  Q 684.15 229.96 683.96 232.70&#10;  Q 682.68 251.11 680.96 257.66&#10;  Q 679.94 261.51 679.76 264.54&#10;  Q 679.56 267.89 678.97 270.90&#10;  Q 678.37 274.00 677.92 277.28&#10;  Q 677.54 280.04 676.68 282.97&#10;  Q 675.72 286.24 675.53 289.11&#10;  Q 675.42 290.89 674.90 292.70&#10;  C 674.42 294.40 674.59 296.05 674.24 297.76&#10;  Q 673.04 303.50 671.98 309.27&#10;  C 671.56 311.57 671.89 313.77 671.27 316.07&#10;  C 670.32 319.58 670.86 323.01 670.12 326.48&#10;  C 669.73 328.27 669.61 330.05 669.24 331.81&#10;  Q 667.65 339.32 666.55 347.67&#10;  Q 666.31 349.52 665.82 351.27&#10;  C 665.36 352.91 665.79 354.42 665.28 356.06&#10;  C 664.48 358.63 663.31 361.73 663.66 364.48&#10;  C 663.89 366.30 662.72 367.83 662.67 369.74&#10;  Q 662.47 376.99 661.03 382.04&#10;  Z&#10;  M 416.99 246.61&#10;  C 435.08 246.69 453.58 247.28 471.28 246.67&#10;  Q 474.90 246.54 487.62 245.30&#10;  Q 495.44 244.54 503.98 244.50&#10;  C 505.58 244.50 507.73 243.86 509.67 243.73&#10;  Q 520.66 242.98 524.55 242.35&#10;  Q 527.50 241.87 530.20 241.59&#10;  C 536.25 240.95 542.28 240.11 548.32 239.46&#10;  Q 553.58 238.89 557.68 238.00&#10;  Q 562.48 236.95 566.98 236.10&#10;  Q 572.12 235.13 577.81 233.56&#10;  Q 583.03 232.13 589.06 230.81&#10;  Q 595.09 229.49 601.42 227.26&#10;  Q 606.91 225.32 612.99 224.09&#10;  C 623.45 221.98 634.95 216.65 645.06 210.78&#10;  Q 648.18 208.98 651.57 207.51&#10;  C 657.53 204.92 660.94 199.88 666.01 196.21&#10;  C 672.41 191.59 673.87 182.44 668.87 176.15&#10;  Q 664.23 170.30 658.69 165.11&#10;  Q 656.13 162.70 651.92 160.61&#10;  Q 636.64 153.01 625.44 148.13&#10;  Q 617.25 144.56 600.07 139.05&#10;  Q 594.06 137.12 586.78 135.71&#10;  Q 580.25 134.45 573.26 132.77&#10;  Q 569.75 131.93 562.70 131.10&#10;  C 559.49 130.73 556.97 128.99 553.68 128.56&#10;  Q 544.96 127.44 536.63 126.22&#10;  Q 531.61 125.49 525.86 124.98&#10;  Q 520.17 124.47 515.01 124.03&#10;  Q 508.70 123.49 500.34 123.19&#10;  C 498.35 123.12 496.55 122.55 494.56 122.54&#10;  C 491.35 122.51 488.74 121.20 485.43 121.46&#10;  C 483.87 121.58 482.45 120.95 480.95 120.91&#10;  Q 449.19 119.97 416.39 120.63&#10;  C 412.06 120.72 408.16 121.79 403.75 121.49&#10;  C 401.76 121.35 400.07 122.16 398.12 122.30&#10;  Q 385.11 123.24 371.64 124.57&#10;  C 368.36 124.89 365.26 124.56 361.95 125.15&#10;  Q 353.64 126.63 347.50 127.25&#10;  Q 339.14 128.11 334.00 128.94&#10;  C 332.08 129.25 330.02 130.16 327.99 130.52&#10;  Q 303.45 134.85 293.48 137.48&#10;  Q 283.45 140.12 264.67 147.02&#10;  C 261.04 148.36 257.89 150.22 254.39 151.56&#10;  Q 250.47 153.07 246.80 155.04&#10;  C 238.41 159.54 229.03 163.54 222.07 170.37&#10;  Q 218.85 173.52 216.07 179.48&#10;  C 215.19 181.36 215.72 183.21 215.61 185.21&#10;  Q 215.48 187.43 216.52 189.58&#10;  C 218.94 194.54 221.46 199.03 226.31 201.56&#10;  C 232.93 205.03 238.92 209.87 245.64 213.21&#10;  Q 254.21 217.45 262.73 220.70&#10;  C 270.38 223.62 279.08 225.34 287.39 227.78&#10;  Q 296.56 230.47 309.57 233.70&#10;  Q 315.36 235.14 320.43 236.06&#10;  Q 325.93 237.05 331.37 238.27&#10;  Q 336.34 239.37 342.15 239.82&#10;  Q 347.41 240.22 352.96 241.09&#10;  Q 361.33 242.41 369.48 243.20&#10;  Q 382.84 244.49 404.71 245.67&#10;  C 408.86 245.89 412.77 246.59 416.99 246.61&#10;  Z&#10;  M 318.12 385.74&#10;  C 322.96 386.15 327.76 386.15 332.53 386.88&#10;  C 336.54 387.49 340.68 387.61 344.75 388.34&#10;  Q 354.27 390.03 364.74 392.22&#10;  C 369.13 393.14 373.25 394.64 377.64 395.66&#10;  Q 382.43 396.77 387.14 398.31&#10;  Q 393.77 400.47 400.59 402.71&#10;  Q 407.26 404.89 413.97 407.67&#10;  Q 421.18 410.65 428.07 413.66&#10;  C 432.22 415.46 436.37 416.02 440.41 418.04&#10;  C 444.94 420.29 449.72 421.71 454.48 423.38&#10;  A 1.58 1.57 -66.7 0 0 456.42 422.60&#10;  Q 459.04 417.40 462.32 412.73&#10;  A 1.65 1.64 -63.1 0 0 461.50 410.22&#10;  L 453.42 407.49&#10;  A 1.73 1.73 0.0 0 1 452.33 405.29&#10;  C 454.94 397.54 458.47 389.69 462.48 382.33&#10;  Q 465.20 377.32 466.88 372.46&#10;  C 469.47 364.98 473.20 358.01 476.68 351.18&#10;  C 478.69 347.26 479.62 343.02 481.51 339.03&#10;  Q 485.32 331.00 489.25 323.00&#10;  C 490.57 320.32 491.57 317.58 492.84 314.88&#10;  C 494.88 310.54 495.57 305.45 498.24 301.51&#10;  C 501.38 296.87 503.01 291.74 505.10 286.64&#10;  C 506.30 283.73 506.97 280.71 507.99 277.76&#10;  Q 508.87 275.21 511.17 271.53&#10;  Q 514.08 266.89 516.20 261.35&#10;  Q 516.53 260.47 515.60 260.46&#10;  Q 511.89 260.42 508.77 260.78&#10;  C 503.79 261.36 498.98 261.39 494.11 262.00&#10;  Q 490.36 262.46 486.03 262.65&#10;  Q 480.99 262.87 475.30 263.10&#10;  Q 458.86 263.75 409.25 263.22&#10;  C 407.89 263.21 406.63 262.80 405.24 262.78&#10;  Q 394.70 262.66 384.24 261.38&#10;  Q 379.86 260.85 375.72 260.60&#10;  Q 371.10 260.33 367.19 259.86&#10;  C 364.50 259.53 361.85 259.48 359.23 258.84&#10;  C 357.47 258.41 355.90 258.61 354.24 258.27&#10;  Q 348.02 256.99 343.65 256.60&#10;  C 340.61 256.32 337.61 255.66 334.58 255.57&#10;  Q 327.77 255.37 322.66 253.89&#10;  Q 316.21 252.02 310.17 251.38&#10;  C 305.90 250.93 302.33 248.97 297.89 248.51&#10;  C 290.59 247.74 285.41 245.69 279.03 243.79&#10;  Q 275.18 242.64 271.08 241.11&#10;  Q 267.44 239.75 263.11 238.42&#10;  Q 251.60 234.87 236.91 226.83&#10;  C 233.27 224.84 230.02 223.68 226.33 222.22&#10;  C 224.67 221.57 223.00 220.67 221.76 219.33&#10;  Q 220.27 217.73 218.35 216.55&#10;  A 0.36 0.35 11.8 0 0 217.81 216.90&#10;  C 218.19 219.51 219.42 221.69 219.47 224.39&#10;  Q 219.59 231.68 220.74 240.08&#10;  C 220.96 241.69 221.52 243.08 221.53 244.69&#10;  Q 221.56 247.09 221.95 249.45&#10;  Q 222.34 251.77 222.50 254.15&#10;  Q 223.14 263.31 223.78 266.30&#10;  Q 226.30 278.08 227.20 286.43&#10;  Q 228.09 294.71 229.22 299.29&#10;  Q 230.13 303.02 230.65 306.42&#10;  Q 231.21 310.14 231.85 313.71&#10;  Q 234.79 330.26 236.40 343.77&#10;  C 236.74 346.56 237.49 349.18 238.08 351.91&#10;  C 238.56 354.11 238.41 356.24 238.98 358.41&#10;  Q 239.59 360.71 239.74 363.14&#10;  C 240.01 367.36 241.47 371.68 241.85 375.64&#10;  Q 242.44 381.78 243.23 387.77&#10;  C 243.59 390.51 243.31 393.12 244.22 395.74&#10;  A 0.80 0.79 74.4 0 0 245.14 396.26&#10;  Q 248.80 395.45 252.44 394.32&#10;  C 258.56 392.42 264.78 391.31 270.83 389.88&#10;  C 275.76 388.71 281.01 387.89 286.00 387.44&#10;  Q 293.34 386.79 300.32 386.05&#10;  C 306.43 385.40 312.29 385.24 318.12 385.74&#10;  Z&#10;  M 602.86 403.93&#10;  Q 597.71 403.63 591.74 403.65&#10;  C 587.40 403.66 584.68 398.56 583.06 395.20&#10;  Q 578.99 386.75 575.02 379.57&#10;  Q 572.82 375.59 570.22 368.01&#10;  Q 567.24 359.29 562.46 351.01&#10;  C 559.73 346.27 557.86 340.84 555.79 335.70&#10;  Q 553.51 330.04 550.39 323.93&#10;  Q 546.51 316.34 543.64 307.44&#10;  Q 542.29 303.26 539.96 298.96&#10;  Q 536.87 293.25 533.65 286.96&#10;  C 531.64 283.03 530.94 278.92 529.47 274.91&#10;  A 0.55 0.54 -35.7 0 0 528.53 274.76&#10;  C 526.54 277.24 526.30 280.95 524.84 283.86&#10;  C 522.19 289.15 520.30 295.06 517.81 300.00&#10;  C 514.07 307.45 510.26 315.06 507.46 322.88&#10;  C 506.10 326.68 504.41 330.42 503.00 334.31&#10;  Q 501.86 337.45 499.86 341.30&#10;  Q 495.58 349.55 491.93 359.56&#10;  Q 489.92 365.09 487.29 369.84&#10;  Q 484.67 374.56 481.99 380.09&#10;  C 479.32 385.57 477.72 391.18 475.10 396.56&#10;  Q 473.01 400.86 476.55 397.65&#10;  C 479.02 395.40 481.35 392.66 484.61 391.64&#10;  C 488.99 390.25 492.42 388.18 497.25 387.39&#10;  C 507.11 385.78 516.08 385.65 526.02 388.35&#10;  Q 528.92 389.13 537.59 393.47&#10;  C 542.11 395.72 545.71 399.29 549.74 402.34&#10;  C 551.73 403.85 553.41 405.71 555.20 407.47&#10;  Q 557.05 409.31 558.23 411.81&#10;  Q 560.01 415.61 562.08 419.34&#10;  C 562.53 420.14 562.72 421.18 563.06 422.05&#10;  A 1.21 1.20 -25.5 0 0 564.77 422.65&#10;  C 569.06 420.25 573.18 417.76 577.86 416.18&#10;  Q 584.81 413.83 590.38 409.99&#10;  C 594.40 407.22 600.80 405.39 605.37 407.72&#10;  Q 606.47 408.28 606.09 409.45&#10;  Q 604.54 414.28 601.72 417.95&#10;  Q 592.33 430.18 578.44 435.19&#10;  C 574.32 436.68 570.75 438.55 566.68 439.88&#10;  Q 566.13 440.06 566.03 440.63&#10;  Q 565.72 442.28 565.82 443.98&#10;  Q 566.10 448.39 565.24 452.30&#10;  A 0.92 0.92 0.0 0 0 566.15 453.42&#10;  Q 573.00 453.35 578.99 453.39&#10;  C 586.95 453.44 595.35 452.67 603.49 452.21&#10;  C 606.18 452.06 608.78 451.51 611.51 451.37&#10;  Q 614.33 451.23 617.43 450.48&#10;  Q 623.78 448.93 630.19 447.70&#10;  C 631.68 447.42 633.10 447.52 634.52 447.14&#10;  A 0.81 0.81 0.0 0 0 635.12 446.40&#10;  C 635.31 442.58 635.68 438.80 636.31 435.07&#10;  C 636.63 433.21 636.35 431.63 636.88 429.77&#10;  C 638.24 424.98 638.09 419.99 638.83 415.08&#10;  Q 639.82 408.51 640.88 402.03&#10;  Q 641.26 399.72 641.58 397.72&#10;  Q 643.28 387.04 644.86 376.52&#10;  Q 645.02 375.50 645.14 374.49&#10;  Q 646.32 364.23 647.46 354.04&#10;  Q 647.62 352.62 647.95 351.32&#10;  C 648.53 349.02 648.48 346.78 648.93 344.46&#10;  Q 650.81 334.77 652.37 325.16&#10;  C 653.03 321.10 654.34 317.13 654.48 313.07&#10;  C 654.55 310.94 655.41 309.14 655.48 307.02&#10;  C 655.57 303.94 656.43 300.82 657.03 297.71&#10;  Q 657.50 295.30 657.71 293.02&#10;  Q 658.77 281.58 660.64 268.59&#10;  Q 660.78 267.63 661.05 266.74&#10;  C 661.60 264.95 661.44 263.24 661.74 261.42&#10;  C 662.74 255.25 663.40 248.94 664.94 243.05&#10;  Q 665.91 239.30 666.31 235.62&#10;  C 666.92 230.03 667.90 224.53 668.80 218.93&#10;  Q 669.43 214.94 666.51 217.74&#10;  C 660.57 223.44 652.27 225.07 645.25 229.20&#10;  Q 640.46 232.02 635.42 234.52&#10;  Q 633.06 235.69 630.49 236.37&#10;  C 622.79 238.41 615.49 241.79 607.72 243.86&#10;  Q 603.94 244.87 599.43 246.53&#10;  Q 596.58 247.59 591.49 248.33&#10;  Q 587.44 248.93 584.00 249.80&#10;  Q 572.53 252.72 560.90 254.41&#10;  Q 559.13 254.66 557.51 255.06&#10;  C 555.14 255.63 552.91 255.22 550.62 255.88&#10;  C 548.15 256.59 545.56 256.73 542.98 256.80&#10;  A 1.27 1.27 0.0 0 0 541.76 258.24&#10;  C 542.28 262.10 543.19 265.59 545.03 269.34&#10;  Q 549.11 277.66 553.04 285.97&#10;  C 555.15 290.41 556.21 295.15 558.29 299.24&#10;  Q 564.38 311.24 569.06 322.75&#10;  Q 573.30 333.19 577.11 341.02&#10;  Q 582.42 351.93 587.24 362.49&#10;  Q 589.46 367.36 591.23 372.47&#10;  Q 593.13 377.94 595.62 382.28&#10;  C 598.78 387.76 600.76 393.69 603.34 399.39&#10;  Q 604.16 401.18 603.60 403.38&#10;  Q 603.45 403.96 602.86 403.93&#10;  Z&#10;  M 563.45 470.58&#10;  Q 561.34 469.01 560.05 471.43&#10;  Q 556.69 477.70 552.41 482.21&#10;  C 549.73 485.03 546.64 487.09 543.87 489.77&#10;  C 541.20 492.36 537.16 494.74 533.93 495.63&#10;  C 528.27 497.20 522.60 499.25 517.22 499.94&#10;  Q 507.27 501.22 496.79 498.43&#10;  Q 491.35 496.97 485.80 495.44&#10;  Q 481.03 494.11 478.60 491.84&#10;  C 474.49 487.99 469.78 485.31 466.56 480.55&#10;  C 462.17 474.04 457.67 467.59 455.64 459.87&#10;  Q 453.66 452.34 453.41 443.37&#10;  Q 453.39 442.87 453.05 442.51&#10;  Q 452.30 441.68 451.23 441.29&#10;  C 447.78 440.05 444.46 438.81 441.21 437.00&#10;  Q 430.89 431.27 418.39 428.41&#10;  Q 416.23 427.91 414.27 426.71&#10;  Q 406.32 421.82 398.92 419.61&#10;  C 394.99 418.44 391.72 416.47 387.60 415.73&#10;  C 377.38 413.90 367.73 409.87 357.51 407.81&#10;  C 343.11 404.90 329.64 403.23 314.84 403.20&#10;  Q 299.72 403.17 291.87 403.98&#10;  Q 282.56 404.95 263.56 408.66&#10;  C 258.14 409.72 253.13 411.63 247.92 413.18&#10;  A 2.19 2.19 0.0 0 0 246.38 415.64&#10;  C 247.17 420.42 247.62 425.21 248.70 429.99&#10;  C 250.22 436.69 250.81 443.58 252.07 450.42&#10;  C 254.05 461.25 254.83 471.58 257.07 481.97&#10;  Q 258.07 486.61 258.73 491.63&#10;  Q 261.45 512.47 265.75 537.49&#10;  C 266.76 543.40 267.37 549.35 268.21 555.09&#10;  C 269.96 567.05 271.01 578.87 272.92 590.95&#10;  C 274.63 601.72 276.01 612.65 277.88 623.26&#10;  Q 280.20 636.42 282.39 651.82&#10;  Q 282.67 653.85 284.51 654.74&#10;  Q 292.44 658.62 301.25 662.70&#10;  Q 307.55 665.63 317.82 668.18&#10;  C 323.38 669.57 328.99 671.24 334.40 673.04&#10;  Q 340.72 675.14 346.29 676.19&#10;  Q 360.27 678.84 370.94 679.55&#10;  Q 374.13 679.76 377.14 680.21&#10;  C 379.88 680.62 382.55 680.44 385.30 680.93&#10;  Q 388.62 681.52 391.95 681.50&#10;  C 394.51 681.49 396.73 682.53 399.39 682.49&#10;  Q 401.27 682.46 403.06 682.84&#10;  Q 405.23 683.30 407.38 683.35&#10;  Q 438.16 684.07 468.36 683.52&#10;  Q 475.26 683.39 483.40 682.74&#10;  Q 490.25 682.18 498.24 681.71&#10;  C 505.18 681.30 511.55 680.53 518.22 679.73&#10;  Q 523.99 679.05 529.73 678.01&#10;  C 535.95 676.88 542.36 676.38 548.42 674.63&#10;  Q 555.43 672.61 563.50 669.57&#10;  C 566.51 668.44 569.82 668.43 572.83 667.25&#10;  C 577.83 665.28 582.95 663.98 587.91 661.71&#10;  Q 594.49 658.70 601.16 655.66&#10;  C 605.56 653.66 603.88 651.73 604.99 648.34&#10;  Q 605.67 646.29 605.97 644.25&#10;  C 607.12 636.38 608.16 628.70 609.49 621.00&#10;  Q 612.06 606.18 613.89 590.30&#10;  C 615.13 579.58 617.66 568.91 618.78 558.29&#10;  C 619.55 551.04 619.81 544.16 621.18 536.94&#10;  Q 623.69 523.65 625.47 511.70&#10;  Q 626.90 502.08 628.39 493.34&#10;  C 630.01 483.77 631.70 475.27 632.29 466.25&#10;  Q 632.35 465.31 631.43 465.45&#10;  Q 623.66 466.65 616.82 467.82&#10;  C 613.31 468.42 609.76 468.50 606.21 469.21&#10;  Q 601.91 470.08 598.20 470.40&#10;  Q 581.75 471.85 565.14 471.18&#10;  A 3.05 3.03 -25.2 0 1 563.45 470.58&#10;  Z&#10;  M 475.89 423.67&#10;  Q 474.59 426.68 473.24 429.88&#10;  Q 471.65 433.63 471.14 436.28&#10;  Q 469.88 442.79 471.08 448.85&#10;  C 471.63 451.64 471.26 454.38 472.39 457.05&#10;  Q 474.64 462.38 477.86 467.74&#10;  Q 480.89 472.80 484.23 474.60&#10;  Q 489.97 477.69 496.19 481.34&#10;  Q 498.60 482.75 501.02 483.15&#10;  C 508.37 484.36 519.22 484.30 525.77 480.43&#10;  Q 530.55 477.61 535.26 475.06&#10;  C 540.36 472.29 542.41 467.56 545.15 462.75&#10;  C 547.89 457.95 548.74 452.62 549.92 447.41&#10;  Q 550.35 445.48 550.01 443.56&#10;  C 549.39 440.13 549.39 436.87 548.19 433.55&#10;  Q 545.58 426.35 542.26 419.52&#10;  Q 541.16 417.26 538.57 415.48&#10;  Q 535.60 413.45 532.99 410.92&#10;  Q 529.42 407.48 526.09 406.72&#10;  Q 523.55 406.15 521.55 405.32&#10;  C 519.47 404.45 517.42 404.53 515.29 404.00&#10;  C 512.38 403.26 509.63 403.51 506.72 403.45&#10;  C 504.72 403.40 503.01 404.19 501.06 404.47&#10;  C 495.09 405.32 490.29 408.95 485.42 412.00&#10;  C 480.49 415.10 478.45 417.73 475.89 423.67&#10;  Z&#10;  M 558.28 729.65&#10;  C 561.56 727.90 565.27 727.15 568.72 725.49&#10;  Q 573.14 723.37 577.45 721.09&#10;  C 580.29 719.59 583.37 719.03 585.84 716.91&#10;  Q 589.87 713.44 594.09 709.52&#10;  Q 596.76 707.03 597.30 704.68&#10;  Q 598.36 700.04 598.78 693.83&#10;  Q 599.38 684.84 601.15 674.49&#10;  A 0.74 0.74 0.0 0 0 600.05 673.73&#10;  C 599.06 674.30 598.39 674.95 597.29 675.37&#10;  C 592.87 677.09 588.69 678.95 584.14 680.34&#10;  Q 577.95 682.23 571.13 684.96&#10;  Q 568.13 686.17 564.39 687.07&#10;  Q 547.61 691.14 528.43 694.99&#10;  C 526.05 695.46 523.76 695.54 521.37 695.94&#10;  Q 518.62 696.41 515.94 696.61&#10;  Q 510.71 697.00 505.59 698.11&#10;  C 503.73 698.51 501.90 698.50 500.04 698.87&#10;  Q 498.07 699.26 495.91 699.27&#10;  C 489.62 699.30 483.30 700.00 477.01 700.33&#10;  Q 471.14 700.64 465.67 700.67&#10;  Q 434.84 700.83 408.51 700.56&#10;  Q 403.39 700.51 397.93 699.73&#10;  C 394.53 699.24 391.30 699.70 387.86 699.04&#10;  C 378.52 697.23 369.01 696.20 359.60 695.04&#10;  Q 355.81 694.58 352.07 693.35&#10;  Q 348.33 692.12 344.28 691.63&#10;  Q 338.90 690.99 333.55 689.64&#10;  C 326.35 687.82 319.04 686.43 312.18 683.49&#10;  Q 306.76 681.16 301.28 680.00&#10;  C 295.79 678.84 291.11 675.99 286.60 672.81&#10;  A 0.53 0.52 -68.0 0 0 285.78 673.16&#10;  Q 285.36 675.84 285.99 678.33&#10;  C 286.77 681.39 286.57 684.35 287.02 687.48&#10;  Q 287.36 689.90 287.41 692.14&#10;  Q 287.54 697.75 290.08 704.30&#10;  Q 292.84 711.41 300.87 716.42&#10;  C 304.16 718.48 307.77 720.05 310.95 722.41&#10;  C 314.33 724.90 318.90 726.19 322.99 727.47&#10;  Q 325.88 728.37 328.95 729.61&#10;  Q 339.52 733.88 343.80 734.77&#10;  Q 351.84 736.46 359.66 738.63&#10;  C 362.22 739.34 364.59 739.38 367.16 739.65&#10;  Q 369.98 739.93 372.81 740.46&#10;  Q 385.26 742.80 390.26 743.20&#10;  Q 398.14 743.83 406.47 744.51&#10;  C 409.90 744.79 413.14 745.46 416.57 745.56&#10;  C 418.28 745.61 420.02 746.27 421.50 746.33&#10;  Q 439.50 747.03 458.50 746.62&#10;  Q 462.90 746.53 467.67 745.85&#10;  Q 473.08 745.08 481.27 744.56&#10;  C 485.29 744.31 489.13 743.48 493.13 743.40&#10;  C 496.48 743.33 499.69 742.50 502.97 742.26&#10;  C 508.88 741.84 514.87 740.14 520.67 739.53&#10;  Q 526.20 738.94 531.25 737.60&#10;  Q 543.43 734.39 555.01 730.99&#10;  Q 556.67 730.50 558.28 729.65&#10;  Z" data-c-fill="160f0d"/>
<path fill="#160f0d" d="&#10;  M 410.59 138.33&#10;  C 412.35 138.20 414.10 137.78 415.80 137.75&#10;  Q 451.77 136.97 465.93 137.62&#10;  Q 491.91 138.82 519.31 140.76&#10;  C 525.84 141.22 531.99 143.20 538.60 143.58&#10;  C 544.79 143.94 550.77 145.69 556.95 146.62&#10;  Q 564.73 147.79 572.50 149.05&#10;  Q 574.91 149.44 579.13 151.41&#10;  Q 581.17 152.37 582.08 154.21&#10;  C 582.99 156.05 583.84 157.96 582.84 160.02&#10;  C 580.32 165.21 573.97 166.44 568.87 165.12&#10;  Q 566.73 164.56 564.60 164.23&#10;  Q 556.26 162.97 548.55 161.53&#10;  Q 545.16 160.90 541.91 160.56&#10;  C 538.94 160.26 536.08 159.68 533.02 159.60&#10;  Q 520.30 159.26 508.68 157.49&#10;  Q 503.15 156.65 497.84 156.60&#10;  C 492.40 156.55 487.12 155.71 481.73 155.62&#10;  Q 434.41 154.83 417.10 155.46&#10;  C 411.10 155.68 405.83 155.60 400.31 156.08&#10;  Q 392.69 156.75 385.26 156.72&#10;  C 383.84 156.72 381.94 157.43 380.18 157.43&#10;  C 377.12 157.43 374.21 158.14 371.13 158.42&#10;  Q 354.42 159.97 340.71 161.26&#10;  C 336.98 161.61 333.55 162.98 329.95 163.37&#10;  Q 318.19 164.63 308.92 166.37&#10;  Q 307.56 166.63 306.37 166.61&#10;  Q 305.73 166.60 305.71 165.96&#10;  C 305.56 160.74 304.91 155.23 305.74 150.17&#10;  Q 305.82 149.65 306.35 149.60&#10;  Q 323.57 147.95 340.55 144.82&#10;  Q 346.20 143.77 351.48 143.43&#10;  Q 355.87 143.14 359.65 142.31&#10;  Q 363.46 141.47 367.83 141.05&#10;  C 374.71 140.38 381.49 139.79 388.41 139.55&#10;  Q 399.42 139.16 410.59 138.33&#10;  Z" data-c-fill="160f0d"/>
<path fill="#1ebae5" d="&#10;  M 563.45 470.58&#10;  A 3.05 3.03 -25.2 0 0 565.14 471.18&#10;  Q 581.75 471.85 598.20 470.40&#10;  Q 601.91 470.08 606.21 469.21&#10;  C 609.76 468.50 613.31 468.42 616.82 467.82&#10;  Q 623.66 466.65 631.43 465.45&#10;  Q 632.35 465.31 632.29 466.25&#10;  C 631.70 475.27 630.01 483.77 628.39 493.34&#10;  Q 626.90 502.08 625.47 511.70&#10;  Q 623.69 523.65 621.18 536.94&#10;  C 619.81 544.16 619.55 551.04 618.78 558.29&#10;  C 617.66 568.91 615.13 579.58 613.89 590.30&#10;  Q 612.06 606.18 609.49 621.00&#10;  C 608.16 628.70 607.12 636.38 605.97 644.25&#10;  Q 605.67 646.29 604.99 648.34&#10;  C 603.88 651.73 605.56 653.66 601.16 655.66&#10;  Q 594.49 658.70 587.91 661.71&#10;  C 582.95 663.98 577.83 665.28 572.83 667.25&#10;  C 569.82 668.43 566.51 668.44 563.50 669.57&#10;  Q 555.43 672.61 548.42 674.63&#10;  C 542.36 676.38 535.95 676.88 529.73 678.01&#10;  Q 523.99 679.05 518.22 679.73&#10;  C 511.55 680.53 505.18 681.30 498.24 681.71&#10;  Q 490.25 682.18 483.40 682.74&#10;  Q 475.26 683.39 468.36 683.52&#10;  Q 438.16 684.07 407.38 683.35&#10;  Q 405.23 683.30 403.06 682.84&#10;  Q 401.27 682.46 399.39 682.49&#10;  C 396.73 682.53 394.51 681.49 391.95 681.50&#10;  Q 388.62 681.52 385.30 680.93&#10;  C 382.55 680.44 379.88 680.62 377.14 680.21&#10;  Q 374.13 679.76 370.94 679.55&#10;  Q 360.27 678.84 346.29 676.19&#10;  Q 340.72 675.14 334.40 673.04&#10;  C 328.99 671.24 323.38 669.57 317.82 668.18&#10;  Q 307.55 665.63 301.25 662.70&#10;  Q 292.44 658.62 284.51 654.74&#10;  Q 282.67 653.85 282.39 651.82&#10;  Q 280.20 636.42 277.88 623.26&#10;  C 276.01 612.65 274.63 601.72 272.92 590.95&#10;  C 271.01 578.87 269.96 567.05 268.21 555.09&#10;  C 267.37 549.35 266.76 543.40 265.75 537.49&#10;  Q 261.45 512.47 258.73 491.63&#10;  Q 258.07 486.61 257.07 481.97&#10;  C 254.83 471.58 254.05 461.25 252.07 450.42&#10;  C 250.81 443.58 250.22 436.69 248.70 429.99&#10;  C 247.62 425.21 247.17 420.42 246.38 415.64&#10;  A 2.19 2.19 0.0 0 1 247.92 413.18&#10;  C 253.13 411.63 258.14 409.72 263.56 408.66&#10;  Q 282.56 404.95 291.87 403.98&#10;  Q 299.72 403.17 314.84 403.20&#10;  C 329.64 403.23 343.11 404.90 357.51 407.81&#10;  C 367.73 409.87 377.38 413.90 387.60 415.73&#10;  C 391.72 416.47 394.99 418.44 398.92 419.61&#10;  Q 406.32 421.82 414.27 426.71&#10;  Q 416.23 427.91 418.39 428.41&#10;  Q 430.89 431.27 441.21 437.00&#10;  C 444.46 438.81 447.78 440.05 451.23 441.29&#10;  Q 452.30 441.68 453.05 442.51&#10;  Q 453.39 442.87 453.41 443.37&#10;  Q 453.66 452.34 455.64 459.87&#10;  C 457.67 467.59 462.17 474.04 466.56 480.55&#10;  C 469.78 485.31 474.49 487.99 478.60 491.84&#10;  Q 481.03 494.11 485.80 495.44&#10;  Q 491.35 496.97 496.79 498.43&#10;  Q 507.27 501.22 517.22 499.94&#10;  C 522.60 499.25 528.27 497.20 533.93 495.63&#10;  C 537.16 494.74 541.20 492.36 543.87 489.77&#10;  C 546.64 487.09 549.73 485.03 552.41 482.21&#10;  Q 556.69 477.70 560.05 471.43&#10;  Q 561.34 469.01 563.45 470.58&#10;  Z&#10;  M 535.47 589.85&#10;  Q 525.19 580.42 511.36 580.62&#10;  Q 504.46 579.19 497.23 581.16&#10;  Q 489.96 583.15 485.43 586.04&#10;  C 480.76 589.02 477.93 592.53 474.25 595.95&#10;  C 467.74 602.01 466.82 609.05 464.51 617.12&#10;  C 462.02 625.86 465.21 635.55 468.73 643.67&#10;  Q 470.66 648.10 473.25 650.70&#10;  Q 476.97 654.43 480.87 658.47&#10;  Q 485.59 663.36 492.46 666.44&#10;  Q 497.28 668.60 502.74 668.73&#10;  Q 511.54 668.94 518.80 668.12&#10;  C 524.69 667.45 530.30 664.75 534.64 660.09&#10;  Q 539.09 655.33 543.65 650.90&#10;  Q 545.43 649.18 546.58 646.67&#10;  C 548.11 643.36 550.29 640.59 551.05 636.92&#10;  Q 552.84 628.34 552.44 619.44&#10;  Q 552.36 617.69 552.02 616.00&#10;  C 551.41 612.96 551.16 610.09 550.04 607.19&#10;  Q 547.56 600.74 543.18 596.46&#10;  C 542.20 595.49 541.43 595.32 540.65 593.97&#10;  Q 538.84 590.83 535.47 589.85&#10;  Z" data-c-fill="1ebae5"/>
<path fill="#fdfdfd" d="&#10;  M 869.13 489.43&#10;  Q 869.63 489.02 870.10 488.75&#10;  A 0.34 0.34 0.0 0 1 870.46 489.33&#10;  L 868.68 490.46&#10;  Q 868.08 490.84 868.18 490.14&#10;  Q 868.23 489.81 868.51 489.74&#10;  Q 868.84 489.67 869.13 489.43&#10;  Z" data-c-fill="fdfdfd"/>
<path fill="#fdfdfd" d="&#10;  M 873.37 494.57&#10;  Q 873.42 494.88 873.34 495.08&#10;  Q 873.09 495.78 873.13 495.03&#10;  Q 873.19 493.98 873.57 492.96&#10;  Q 873.64 492.78 873.66 492.97&#10;  Q 873.71 493.55 873.48 494.00&#10;  Q 873.33 494.27 873.37 494.57&#10;  Z" data-c-fill="fdfdfd"/>
<path fill="#fdfdfd" d="&#10;  M 511.36 580.62&#10;  Q 514.82 581.80 518.23 582.70&#10;  Q 522.75 583.89 525.04 584.95&#10;  Q 538.47 591.18 546.28 603.96&#10;  Q 549.45 609.13 549.24 613.72&#10;  C 549.04 618.24 551.05 621.85 551.01 626.29&#10;  Q 551.01 626.43 551.15 626.44&#10;  L 551.15 626.44&#10;  Q 551.26 626.45 551.27 626.34&#10;  Q 551.98 620.83 551.26 617.08&#10;  Q 550.69 614.04 549.83 610.39&#10;  Q 547.99 602.59 542.92 597.33&#10;  Q 541.43 595.78 539.37 593.44&#10;  Q 537.63 591.45 535.47 589.85&#10;  Q 538.84 590.83 540.65 593.97&#10;  C 541.43 595.32 542.20 595.49 543.18 596.46&#10;  Q 547.56 600.74 550.04 607.19&#10;  C 551.16 610.09 551.41 612.96 552.02 616.00&#10;  Q 552.36 617.69 552.44 619.44&#10;  Q 552.84 628.34 551.05 636.92&#10;  C 550.29 640.59 548.11 643.36 546.58 646.67&#10;  Q 545.43 649.18 543.65 650.90&#10;  Q 539.09 655.33 534.64 660.09&#10;  C 530.30 664.75 524.69 667.45 518.80 668.12&#10;  Q 511.54 668.94 502.74 668.73&#10;  Q 497.28 668.60 492.46 666.44&#10;  Q 485.59 663.36 480.87 658.47&#10;  Q 476.97 654.43 473.25 650.70&#10;  Q 470.66 648.10 468.73 643.67&#10;  C 465.21 635.55 462.02 625.86 464.51 617.12&#10;  C 466.82 609.05 467.74 602.01 474.25 595.95&#10;  C 477.93 592.53 480.76 589.02 485.43 586.04&#10;  Q 489.96 583.15 497.23 581.16&#10;  Q 504.46 579.19 511.36 580.62&#10;  Z" data-c-fill="fdfdfd"/>
</svg>